<svg width="88" height="156" viewBox="0 0 88 156" fill="none" xmlns="http://www.w3.org/2000/svg">
<path d="M42.3418 97.9393L43.3465 146.166" stroke="#7033ff" stroke-width="3" stroke-linecap="round"/>
<path d="M43.3465 102.963C56.9403 119.209 70.5341 135.455 78.0343 144.488C85.5346 153.52 86.5292 154.846 86.5443 154.535C86.5594 154.224 85.5647 152.234 84.5399 150.185" stroke="#7033ff" stroke-width="3" stroke-linecap="round"/>
<path d="M59.422 74.8308C52.4593 75.4939 45.4966 76.157 40.5835 76.996C35.6704 77.8349 33.018 78.8296 30.2852 79.8544" stroke="#7033ff" stroke-width="3" stroke-linecap="round"/>
<path d="M21.2427 34.6421C34.2839 23.2687 41.97 19.5814 47.9933 19.5664C53.1964 19.5533 52.0574 30.5831 50.8919 37.9376C49.8896 44.2623 45.0445 48.025 40.6991 50.0344C37.2998 51.6063 33.651 50.3861 30.6418 49.0548C26.9395 42.0369 26.2663 35.3253 26.4321 32.6528C26.5978 31.3065 26.9294 29.9803 29.2804 27.6091" stroke="#7033ff" stroke-width="3" stroke-linecap="round"/>
<path d="M1.0409 9.5375C1.44395 8.09802 1.84701 6.65854 2.19859 5.85941C2.55017 5.06029 2.83807 4.94513 3.44701 4.8858C4.05595 4.82648 4.97722 4.82648 5.56697 4.91285C6.15672 4.99922 6.38703 5.17195 6.59205 5.89431C7.14484 7.84203 6.91746 9.76432 5.90633 11.3565C4.17227 14.087 2.09128 15.8136 1.48147 16.9443C0.82888 18.1542 0.923996 19.8232 1.27034 21.3909C1.4345 22.134 2.07732 22.6132 2.97765 22.9953C3.87798 23.3774 5.14472 23.6077 6.17155 23.64C7.19837 23.6723 7.9469 23.4996 10.1175 21.7408C12.288 19.982 15.8579 16.6424 18.1288 14.375C20.3997 12.1076 21.2634 11.0136 22.3277 9.5375" stroke="#7033ff" stroke-width="3" stroke-linecap="round"/>
<path d="M19.068 24.0316C18.4922 24.8377 17.9164 25.6439 17.5334 25.7424C17.1504 25.841 16.9777 25.2076 17.1478 24.6511C17.3179 24.0945 17.8362 23.6338 18.1607 23.4829C18.4852 23.332 18.6004 23.5047 18.3701 23.6827" stroke="#7033ff" stroke-width="3" stroke-linecap="round"/>
<path d="M35.2394 34.1395L35.0649 33.965" stroke="#7033ff" stroke-width="3" stroke-linecap="round"/>
<path d="M33.1456 30.6498L36.8097 31.5222" stroke="#7033ff" stroke-width="3" stroke-linecap="round"/>
<path d="M44.6614 31.6967C44.6038 31.6967 44.5463 31.6967 44.4878 31.6104C44.4294 31.524 44.3718 31.3512 44.3125 31.5222" stroke="#7033ff" stroke-width="3" stroke-linecap="round"/>
<path d="M43.4401 27.8581L40.9973 28.556" stroke="#7033ff" stroke-width="3" stroke-linecap="round"/>
<path d="M45.1849 40.4208C42.8678 41.1728 40.076 42.1063 38.8494 42.2817C38.558 42.2826 38.2126 42.225 37.9194 42.1089C37.6263 41.9929 37.396 41.8202 36.8097 41.4677" stroke="#7033ff" stroke-width="3" stroke-linecap="round"/>
<path d="M30.2583 3.91579C30.2583 2.93691 30.639 2.02478 31.3789 1.35242C31.7091 1.0524 32.0645 0.979158 32.3141 1.0047C32.5638 1.03024 32.7269 1.19339 32.8246 1.49496C32.9222 1.79654 32.9494 2.23159 32.7051 3.38021C32.4608 4.52882 31.9442 6.37781 31.9635 7.62942C31.9829 8.88103 32.5539 9.47923 33.0112 9.81458C33.4685 10.1499 33.7948 10.2043 34.1668 10.11C34.9911 9.90093 35.802 8.70305 36.5563 7.20878C36.8756 6.53024 37.066 6.01361 37.2048 5.6659C37.3436 5.31818 37.4252 5.15504 37.5093 4.98695" stroke="#7033ff" stroke-width="3" stroke-linecap="round"/>
<path d="M37.4269 11.9907C37.2909 12.0995 37.155 12.2082 37.1393 12.2506C37.1236 12.2931 37.2324 12.2659 37.302 12.3063C37.3717 12.3466 37.3989 12.4554 37.3449 12.5658C37.2909 12.6762 37.155 12.785 36.8501 12.8971" stroke="#7033ff" stroke-width="3" stroke-linecap="round"/>
<path d="M53.4943 10.0132C53.3855 9.95878 54.0636 8.70717 55.2032 7.68256C55.539 7.38062 55.663 9.5402 55.6366 10.6258C55.5989 12.179 55.4438 13.0577 55.6214 13.9068C55.8171 14.8429 56.3213 15.4769 56.7593 15.7381C56.9804 15.87 57.306 15.7546 57.596 15.4275C57.886 15.1003 58.1579 14.5021 58.3388 13.7861C58.5197 13.0701 58.6012 12.2544 58.6853 11.4139" stroke="#7033ff" stroke-width="3" stroke-linecap="round"/>
<path d="M59.5916 18.8296C59.5373 18.9384 59.3189 19.0488 58.9625 19.0632C58.7919 19.0701 58.6606 18.8873 58.6041 18.7629C58.5477 18.6385 58.5749 18.5297 58.6976 18.4465C58.8204 18.3633 59.0379 18.3089 59.2316 18.3488C59.4252 18.3888 59.5883 18.5248 59.8388 18.8296" stroke="#7033ff" stroke-width="3" stroke-linecap="round"/>
<path d="M3.31606 38.4738C3.33724 37.8598 3.35841 37.2457 3.61283 36.8129C3.86724 36.3801 4.35425 36.1472 4.79571 36.2178C5.23716 36.2884 5.6183 36.6695 6.07933 37.4164C6.54035 38.1633 7.06971 39.2643 7.57533 40.2021C8.08095 41.1399 8.54679 41.881 8.9244 42.358C9.30201 42.8351 9.57728 43.0257 10.0155 42.9545C10.4538 42.8832 11.0467 42.5444 11.7226 41.9782C12.3986 41.4119 13.1397 40.6285 13.7968 39.6108C14.4538 38.5932 15.0044 37.3651 15.2774 36.3936C15.5504 35.4221 15.5292 34.7446 15.3791 33.9181" stroke="#7033ff" stroke-width="3" stroke-linecap="round"/>
<path d="M17.7532 41.1687C17.5414 41.1687 17.3297 41.1687 17.2418 41.137C17.1539 41.1052 17.1962 41.0417 17.3682 40.9763" stroke="#7033ff" stroke-width="3" stroke-linecap="round"/>
<path d="M46.3606 106.982C44.7028 97.3666 43.0451 87.7515 41.8595 77.6591C40.6739 67.5667 40.0108 57.2885 38.3229 46.6987" stroke="#7033ff" stroke-width="3" stroke-linecap="round"/>
</svg>
