<svg width="43" height="70" viewBox="0 0 43 70" fill="none" xmlns="http://www.w3.org/2000/svg">
<path d="M23.8999 44.2889L11.0893 68.0121" stroke="#7033ff" stroke-width="3" stroke-linecap="round"/>
<path d="M20.1041 43.3399C20.2607 43.6531 20.4173 43.9662 24.1774 47.4939C27.9376 51.0215 35.2965 57.7542 38.8526 60.9093C42.4087 64.0645 41.939 63.4382 41.4551 62.793" stroke="#7033ff" stroke-width="3" stroke-linecap="round"/>
<path d="M33.3892 32.9017C32.2932 32.5885 31.1971 32.2754 28.2839 32.0358C25.3707 31.7962 20.6735 31.6396 15.834 31.4783" stroke="#7033ff" stroke-width="3" stroke-linecap="round"/>
<path d="M7.8212 4.0267C9.23513 2.8303 10.6491 1.63389 13.0905 1.19431C15.5319 0.754718 18.958 1.1082 21.2395 1.77974C23.5211 2.45127 24.5544 3.43015 25.2498 4.17913C25.9452 4.92812 26.2715 5.41756 26.5484 5.99599C26.8252 6.57441 27.0428 7.227 27.2092 7.94385C27.3756 8.6607 27.4844 9.42205 27.4181 10.63C27.3517 11.8379 27.107 13.4694 26.6411 14.7313C26.1751 15.9932 25.4953 16.8361 24.2343 17.855C22.9732 18.8738 21.1514 20.043 19.4379 20.9716C17.7245 21.9002 16.1746 22.5528 14.7236 22.8754C13.2726 23.198 11.9674 23.1708 10.6968 22.9393C9.42629 22.7077 8.22988 22.2727 6.51232 20.6482C4.79476 19.0238 2.59228 16.2231 1.60723 14.087C0.622174 11.9508 0.921275 10.5641 1.89109 9.02037C2.8609 7.47666 4.49236 5.81801 5.87663 4.59648C7.2609 3.37494 8.34854 2.64078 9.15355 2.24899C9.95857 1.85719 10.448 1.83 10.9523 1.80198" stroke="#7033ff" stroke-width="3" stroke-linecap="round"/>
<path d="M8.06839 8.97052C8.28592 9.10647 8.50345 9.24243 8.61551 9.23089C8.72757 9.21936 8.72757 9.05621 8.80914 8.93138C8.89071 8.80655 9.05386 8.72498 9.22195 8.64093" stroke="#7033ff" stroke-width="3" stroke-linecap="round"/>
<path d="M18.368 6.08663C18.2864 6.1682 18.2049 6.24978 18.0405 6.26461C17.8761 6.27944 17.6314 6.22506 17.544 6.33382" stroke="#7033ff" stroke-width="3" stroke-linecap="round"/>
<path d="M21.4167 9.30011C21.0904 10.6053 20.6776 11.6855 20.1708 12.4666C19.6919 13.2049 18.5682 13.9918 17.0472 14.8013C15.7599 15.4865 14.6634 15.4247 14.0467 15.4251C12.9637 15.4258 11.974 14.44 11.3247 13.834C11.2275 13.696 11.1731 13.56 11.1179 13.3948C11.0627 13.2296 11.0083 13.0393 10.9523 12.7608" stroke="#7033ff" stroke-width="3" stroke-linecap="round"/>
<path d="M22.9509 45.2378C22.9509 44.9246 22.9509 44.6115 22.7944 41.1621C22.6378 37.7128 22.3246 31.1367 21.5275 23.8869" stroke="#7033ff" stroke-width="3" stroke-linecap="round"/>
</svg>
