<svg width="202" height="159" viewBox="0 0 202 159" fill="none" xmlns="http://www.w3.org/2000/svg">
<path d="M123.579 54.6877C94.5175 58.7284 65.4555 62.7691 45.9772 65.1615C26.4989 67.5539 17.4851 68.1755 12.2199 69.2728C6.95473 70.3701 5.71144 71.9243 4.52701 74.4344C3.34259 76.9445 2.25471 80.3636 1.61658 84.9223C0.204719 95.0085 1.43997 103.327 3.08357 107.871C4.45599 111.666 7.70824 115.105 15.8179 120.42C21.7232 124.29 32.6306 128.221 42.9702 131.164C53.3098 134.108 63.1007 135.351 76.9253 133.272C90.7499 131.193 108.311 125.753 122.798 120.62C137.284 115.487 148.163 110.824 157.108 105.858C166.054 100.892 172.737 95.7635 176.412 92.8884C180.088 90.0132 180.554 89.547 180.173 88.6852C179.791 87.8233 178.548 86.58 173.634 83.2199C168.719 79.8597 160.172 74.4203 151.106 70.5303C142.04 66.6403 132.716 64.4645 125.659 63.3436C118.602 62.2228 114.095 62.2228 107.188 62.7667C100.282 63.3107 91.1125 64.3986 81.6654 65.5194" stroke="#7033ff" stroke-width="2" stroke-linecap="round"/>
<path d="M36.9256 63.6356L33.629 36.3208" stroke="#7033ff" stroke-width="2" stroke-linecap="round"/>
<path d="M33.1581 46.6816C33.0027 49.1682 32.8473 51.6548 31.9902 59.2299C31.1331 66.805 29.5789 79.3934 27.9777 92.3632" stroke="#7033ff" stroke-width="2" stroke-linecap="round"/>
<path d="M32.6871 48.5654C32.8425 48.8762 32.998 49.187 38.7505 54.0872C44.5031 58.9874 55.8482 68.4675 67.537 78.2349" stroke="#7033ff" stroke-width="2" stroke-linecap="round"/>
<path d="M13.3784 12.3027C21.149 12.1473 28.9196 11.9918 33.3888 13.5436C37.8581 15.0954 38.7906 18.359 38.1054 21.3613C36.6813 27.6006 27.5586 31.2817 19.0886 33.4033C15.801 34.2268 14.3486 33.5046 12.3847 31.9434C10.4209 30.3822 7.93429 27.7402 6.80874 24.4366C5.68318 21.1329 5.994 17.2476 8.40759 13.2257C10.8212 9.20385 15.3281 5.16315 19.9716 1" stroke="#7033ff" stroke-width="2" stroke-linecap="round"/>
<path d="M136.295 33.4952L100.974 54.6877" stroke="#7033ff" stroke-width="2" stroke-linecap="round"/>
<path d="M132.998 33.4952L129.231 64.1066" stroke="#7033ff" stroke-width="2" stroke-linecap="round"/>
<path d="M131.115 2.88379C124.276 8.47861 120.598 13.5366 120.596 17.4548C120.592 23.6202 128.251 29.5392 132.746 32.0776C135.715 33.7538 140.976 32.8688 146.536 32.0117C155.981 30.5556 159.654 24.7262 163.287 19.8566C164.833 17.7854 163.925 14.8269 163.224 12.3992C159.541 7.91818 154.53 4.62157 150.296 2.97327C148.549 2.41284 147.616 2.41284 146.656 2.41284" stroke="#7033ff" stroke-width="2" stroke-linecap="round"/>
<path d="M131.115 41.0303L135.353 70.6998" stroke="#7033ff" stroke-width="2" stroke-linecap="round"/>
<path d="M54.3506 113.085L64.7114 157.825" stroke="#7033ff" stroke-width="2" stroke-linecap="round"/>
<path d="M64.7114 157.354L106.154 143.225" stroke="#7033ff" stroke-width="2" stroke-linecap="round"/>
<path d="M68.008 154.999L83.0782 139.929" stroke="#7033ff" stroke-width="2" stroke-linecap="round"/>
<path d="M39.2803 100.84C43.1656 97.732 47.0509 94.6237 50.8397 94.5766C54.6284 94.5295 58.2029 97.6378 60.6659 100.094C63.129 102.55 64.3723 104.259 63.8472 106.539C62.5395 112.215 56.8795 115.275 53.6677 116.219C52.2175 116.645 50.9221 115.92 49.7377 114.747C47.0419 112.078 46.1891 107.768 46.2644 104.24C46.4952 102.733 47.1169 101.801 48.0587 100.932C49.0006 100.063 50.2439 99.2861 51.9958 98.4855" stroke="#7033ff" stroke-width="2" stroke-linecap="round"/>
<path d="M59.5309 131.452L75.0721 115.91" stroke="#7033ff" stroke-width="2" stroke-linecap="round"/>
<path d="M62.8276 138.516L91.5552 120.149" stroke="#7033ff" stroke-width="2" stroke-linecap="round"/>
<path d="M169.732 59.3971L166.906 115.91" stroke="#7033ff" stroke-width="2" stroke-linecap="round"/>
<path d="M165.023 118.265L149.481 147.935" stroke="#7033ff" stroke-width="2" stroke-linecap="round"/>
<path d="M163.139 119.207L142.417 125.8" stroke="#7033ff" stroke-width="2" stroke-linecap="round"/>
<path d="M166.906 84.8281C166.906 84.6727 166.906 84.5173 163.72 84.3595C160.534 84.2018 154.163 84.0464 147.598 83.8862" stroke="#7033ff" stroke-width="2" stroke-linecap="round"/>
<path d="M165.494 85.77L140.062 99.8984" stroke="#7033ff" stroke-width="2" stroke-linecap="round"/>
<path d="M171.145 41.5012C170.834 40.8796 166.633 44.6001 160.744 51.0332C158.703 53.2632 159.362 54.0472 160.612 55.1445C161.862 56.2418 163.883 57.7959 165.701 58.4411C167.519 59.0863 169.073 58.7755 173.914 57.0612C178.755 55.347 186.837 52.2388 192.01 49.7828C197.183 47.3268 199.204 45.6173 200.244 44.5035C201.285 43.3897 201.285 42.9235 199.576 41.2846C194.681 36.5919 188.282 33.0337 183.036 31.5431C178.091 30.1382 173.208 31.602 169.989 33.5588C168.945 34.5831 169.101 35.6709 169.492 36.7753C169.883 37.8797 170.504 38.9676 171.145 40.0884" stroke="#7033ff" stroke-width="2" stroke-linecap="round"/>
<path d="M96.5616 81.7274C98.5718 80.549 100.37 79.9419 102.097 80.0113C104.214 80.0962 105.938 80.5007 106.969 80.832C107.885 81.1263 108.635 81.8986 109.369 82.7708C110.143 83.69 110.11 84.7699 110.023 85.5198C109.805 87.4036 109.026 88.1654 108.693 88.9011C108.571 89.1116 108.398 89.3542 108.257 89.4965C108.115 89.6389 108.011 89.6735 107.904 89.7092" stroke="#7033ff" stroke-width="2" stroke-linecap="round"/>
<path d="M105.384 86.8735C105.592 89.8541 105.907 91.4936 106.464 91.6858C106.814 91.774 107.299 91.8433 107.982 91.879C108.666 91.9147 109.532 91.9147 110.425 91.9147" stroke="#7033ff" stroke-width="2" stroke-linecap="round"/>
<path d="M103.283 94.5403C101.793 95.2681 100.303 95.996 98.7897 96.1456C97.2768 96.2953 95.7865 95.8447 94.8108 95.3873C93.3063 94.6821 92.5055 93.2181 91.7184 91.6984C91.2746 89.4319 91.5193 88.5917 91.8155 88.0157C92.0077 87.7169 92.285 87.405 92.6757 86.8735" stroke="#7033ff" stroke-width="2" stroke-linecap="round"/>
<path d="M86.7943 88.764C89.2204 87.5163 90.8167 86.8736 91.4285 86.8562C91.8699 86.8437 92.3575 86.9072 93.4193 87.6371C94.1691 88.2284 95.3475 89.2681 96.0065 89.8384C96.6656 90.4087 96.7695 90.478 96.8767 90.5494" stroke="#7033ff" stroke-width="2" stroke-linecap="round"/>
</svg>
