<svg width="112" height="160" viewBox="0 0 112 160" fill="none" xmlns="http://www.w3.org/2000/svg">
<path d="M79.5375 96.5015C85.77 104.752 92.0026 113.002 97.1189 120.413C102.235 127.825 106.047 134.147 108.122 137.516C110.198 140.885 110.422 141.109 110.789 141.34" stroke="#7033ff" stroke-width="3" stroke-linecap="round"/>
<path d="M79.8945 96.2906C76.6662 81.3835 73.438 66.4765 70.4456 55.3315C67.4533 44.1865 64.7947 37.2552 62.0556 30.1138" stroke="#7033ff" stroke-width="3" stroke-linecap="round"/>
<path d="M92.5544 48.5282L57.7397 83.0552" stroke="#7033ff" stroke-width="3" stroke-linecap="round"/>
<path d="M33.5708 4.50633C34.1405 4.12653 37.9471 2.88643 44.0296 1.35142C46.5659 0.711354 48.1182 0.9558 50.7523 2.00168C53.3864 3.04756 57.0895 5.04149 60.1365 7.11311C63.1835 9.18473 65.4623 11.2736 67.2533 13.5366C69.0444 15.7995 70.2788 18.1733 70.9146 20.2032C71.5505 22.2331 71.5505 23.8472 70.2212 25.8181C68.8919 27.789 66.2334 30.0678 63.3446 31.4791C60.4558 32.8904 57.4175 33.3651 53.0987 33.7521C48.78 34.1391 43.2729 34.424 38.7743 34.2384C34.2758 34.0528 30.9525 33.3882 27.9588 31.9064C24.965 30.4246 22.4013 28.1458 20.7958 26.0699C19.1903 23.9939 18.6206 22.1899 18.5171 20.8807C18.7933 18.812 20.6088 16.6052 23.5738 14.0199C25.1146 12.859 26.7287 12.0044 28.9672 11.124" stroke="#7033ff" stroke-width="3" stroke-linecap="round"/>
<path d="M37.2842 18.823C37.2103 18.823 37.1363 18.823 37.1352 18.712C37.1341 18.6011 37.208 18.3793 37.3201 18.376C37.4321 18.3726 37.58 18.5944 37.5452 18.6717C37.5105 18.749 37.2887 18.6751 37.0635 18.4521C36.8383 18.2292 36.6165 17.8595 36.612 17.0305" stroke="#7033ff" stroke-width="3" stroke-linecap="round"/>
<path d="M52.9684 15.9102C52.7466 15.9841 52.5248 16.0581 52.1147 16.0961C51.7047 16.1342 51.1132 16.1342 50.9194 16.1712C50.7256 16.2082 50.9474 16.2821 51.4 16.8064" stroke="#7033ff" stroke-width="3" stroke-linecap="round"/>
<path d="M35.4917 10.7568L39.0767 10.5327" stroke="#7033ff" stroke-width="3" stroke-linecap="round"/>
<path d="M46.2466 10.9809C46.3945 10.9069 46.5424 10.833 47.3949 10.3143C48.2475 9.79558 49.8002 8.83436 51.4 7.84402" stroke="#7033ff" stroke-width="3" stroke-linecap="round"/>
<path d="M55.209 27.7854C51.512 27.8593 47.815 27.9332 45.319 27.9344C42.823 27.9355 41.6399 27.8615 39.9729 27.5613" stroke="#7033ff" stroke-width="3" stroke-linecap="round"/>
<path d="M79.517 9.17799C79.2866 8.14156 79.0563 7.10514 79.3695 6.13938C79.6827 5.17362 80.5464 4.30994 81.3368 4.41201C82.1272 4.51408 82.8182 5.60808 83.6347 7.49598C84.4513 9.38388 85.3726 12.0325 85.9911 13.6561C86.6097 15.2796 86.8976 15.7978 87.161 15.9784C87.4245 16.159 87.6548 15.9863 89.0978 14.3427C90.5407 12.699 93.1894 9.58976 95.9183 6.38627" stroke="#7033ff" stroke-width="3" stroke-linecap="round"/>
<path d="M96.0928 15.4593C96.0352 15.4593 95.9776 15.4593 95.9767 15.5457C95.9759 15.6321 96.0334 15.8048 95.9767 15.8074C95.92 15.8101 95.7473 15.6373 95.7438 15.4593" stroke="#7033ff" stroke-width="3" stroke-linecap="round"/>
<path d="M1.00002 8.13109C2.32433 6.63404 3.64865 5.13698 4.76272 5.48856C5.87679 5.84014 6.74048 8.08573 7.2142 9.38649C7.68791 10.6873 7.74549 10.9752 8.69642 9.94309C9.64735 8.91103 11.4899 6.55029 13.5627 3.76904" stroke="#7033ff" stroke-width="3" stroke-linecap="round"/>
<path d="M15.482 12.3187C15.5396 12.2611 15.5972 12.2035 15.5405 11.9435C15.4838 11.6835 15.311 11.2229 15.1331 10.7483" stroke="#7033ff" stroke-width="3" stroke-linecap="round"/>
<path d="M6.06 27.8476C6.29031 26.7536 6.52063 25.6596 6.8408 24.9808C7.16098 24.3021 7.56403 24.0718 7.97319 24.3274C9.06852 25.0117 9.54615 27.3695 10.1272 29.6918C10.587 31.5297 10.6541 32.6144 10.8853 33.0498C11.0113 33.287 11.3468 33.4275 11.6679 33.5165C12.3159 33.6961 13.2085 33.3176 14.0801 32.5647C14.4334 32.0997 14.6061 31.4663 14.6951 30.9385C14.7841 30.4107 14.7841 30.0077 14.7841 29.5924" stroke="#7033ff" stroke-width="3" stroke-linecap="round"/>
<path d="M18.9717 35.0013V35.6993" stroke="#7033ff" stroke-width="3" stroke-linecap="round"/>
<path d="M79.1069 96.4763C73.7834 116.518 68.4599 136.559 65.4827 147.275C62.5054 157.991 62.0357 158.774 61.7937 158.864C61.5517 158.954 61.5517 158.328 61.5517 157.682" stroke="#7033ff" stroke-width="3" stroke-linecap="round"/>
</svg>
