<svg xmlns="http://www.w3.org/2000/svg" version="1.1" xmlns:xlink="http://www.w3.org/1999/xlink" width="1000" height="1000"><g clip-path="url(#SvgjsClipPath1047)"><rect width="1000" height="1000" fill="#ffffff"></rect><g transform="matrix(4.62962962962963,0,0,4.62962962962963,0,0)"><svg xmlns="http://www.w3.org/2000/svg" version="1.1" xmlns:xlink="http://www.w3.org/1999/xlink" width="216" height="216"><svg width="216" height="216" viewBox="0 0 216 216" fill="none" xmlns="http://www.w3.org/2000/svg">
<g clip-path="url(#clip0_164_52)">
<rect width="216" height="216" fill="white"></rect>
<path d="M198.251 290.364C190.385 254.038 182.518 217.713 175.226 190.554C167.934 163.396 161.456 146.506 154.781 129.104" stroke="#7033FF" stroke-width="8" stroke-linecap="round"></path>
<path d="M207.837 123L123 207.136" stroke="#7033FF" stroke-width="8" stroke-linecap="round"></path>
<path d="M85.3692 66.7028C86.7574 65.7773 96.0334 62.7554 110.855 59.0149C117.036 57.4552 120.818 58.0508 127.237 60.5995C133.656 63.1481 142.68 68.0069 150.105 73.0551C157.53 78.1032 163.083 83.1935 167.447 88.7079C171.812 94.2223 174.82 100.007 176.369 104.953C177.919 109.9 177.919 113.833 174.679 118.636C171.44 123.438 164.962 128.991 157.922 132.43C150.883 135.87 143.479 137.026 132.955 137.969C122.431 138.912 109.011 139.607 98.0491 139.154C87.0869 138.702 78.9889 137.083 71.6936 133.472C64.3983 129.861 58.1512 124.308 54.2389 119.249C50.3266 114.191 48.9383 109.794 48.6859 106.604C49.359 101.563 53.7831 96.1854 61.0083 89.8858C64.7629 87.0567 68.6962 84.9743 74.151 82.8289" stroke="#7033FF" stroke-width="8" stroke-linecap="round"></path>
<path d="M94.4181 101.59C94.238 101.59 94.0578 101.59 94.055 101.32C94.0523 101.049 94.2325 100.509 94.5055 100.501C94.7785 100.492 95.1388 101.033 95.0542 101.221C94.9696 101.41 94.429 101.229 93.8803 100.686C93.3316 100.143 92.7911 99.242 92.7802 97.2218" stroke="#7033FF" stroke-width="8" stroke-linecap="round"></path>
<path d="M132.637 94.4919C132.097 94.6721 131.556 94.8522 130.557 94.9451C129.558 95.0379 128.117 95.0379 127.644 95.128C127.172 95.2181 127.713 95.3982 128.815 96.6759" stroke="#7033FF" stroke-width="8" stroke-linecap="round"></path>
<path d="M90.05 81.9341L98.7859 81.3881" stroke="#7033FF" stroke-width="8" stroke-linecap="round"></path>
<path d="M116.258 82.4801C116.618 82.2999 116.978 82.1197 119.056 80.8557C121.133 79.5918 124.917 77.2495 128.815 74.8362" stroke="#7033FF" stroke-width="8" stroke-linecap="round"></path>
<path d="M138.097 123.429C129.089 123.61 120.08 123.79 113.997 123.793C107.915 123.795 105.032 123.615 100.97 122.883" stroke="#7033FF" stroke-width="8" stroke-linecap="round"></path>
<path d="M149.737 44.6338C149.176 42.1083 148.615 39.5827 149.378 37.2293C150.141 34.876 152.246 32.7713 154.172 33.02C156.098 33.2688 157.782 35.9347 159.772 40.5351C161.761 45.1356 164.006 51.5898 165.514 55.5461C167.021 59.5024 167.722 60.7652 168.364 61.2053C169.006 61.6453 169.568 61.2244 173.084 57.2192C176.6 53.214 183.054 45.6373 189.704 37.831" stroke="#7033FF" stroke-width="8" stroke-linecap="round"></path>
<path d="M190.13 59.9404C189.989 59.9404 189.849 59.9404 189.847 60.1508C189.845 60.3613 189.985 60.7822 189.847 60.7886C189.709 60.795 189.288 60.3741 189.279 59.9404" stroke="#7033FF" stroke-width="8" stroke-linecap="round"></path>
<path d="M6 75.5357C9.22712 71.8876 12.4542 68.2396 15.169 69.0963C17.8838 69.9531 19.9884 75.4251 21.1428 78.5949C22.2972 81.7646 22.4375 82.4661 24.7547 79.9512C27.072 77.4362 31.5619 71.6836 36.613 64.9062" stroke="#7033FF" stroke-width="8" stroke-linecap="round"></path>
<path d="M41.2901 85.74C41.4304 85.5997 41.5707 85.4594 41.4325 84.8259C41.2943 84.1924 40.8734 83.0699 40.4397 81.9134" stroke="#7033FF" stroke-width="8" stroke-linecap="round"></path>
<path d="M18.3302 123.581C18.8914 120.915 19.4527 118.249 20.2329 116.595C21.0131 114.941 21.9953 114.38 22.9923 115.003C25.6614 116.671 26.8253 122.416 28.2412 128.075C29.3616 132.554 29.5252 135.197 30.0886 136.258C30.3956 136.836 31.2132 137.178 31.9955 137.395C33.5746 137.833 35.7499 136.911 37.8736 135.076C38.7346 133.943 39.1555 132.399 39.3724 131.113C39.5892 129.827 39.5892 128.845 39.5892 127.833" stroke="#7033FF" stroke-width="8" stroke-linecap="round"></path>
<path d="M49.7937 141.014V142.714" stroke="#7033FF" stroke-width="8" stroke-linecap="round"></path>
</g>
<defs>
<clipPath id="clip0_164_52">
<rect width="216" height="216" fill="white"></rect>
</clipPath>
<clipPath id="SvgjsClipPath1047"><rect width="1000" height="1000" x="0" y="0" rx="500" ry="500"></rect></clipPath></defs>
</svg></svg></g></g></svg>