<svg width="12" height="23" viewBox="0 0 12 23" fill="none" xmlns="http://www.w3.org/2000/svg">
<path d="M5.68258 16.0223C5.35475 16.9121 5.02693 17.8019 4.68243 18.5764C4.33794 19.3509 3.9867 19.9831 3.64185 20.5313C3.29699 21.0794 2.96917 21.5243 2.4895 22.1246" stroke="currentColor" stroke-width="1.73045" stroke-linecap="round"/>
<path d="M5.75352 16.0932C6.17501 16.8425 6.67313 17.7905 7.11058 18.6771C7.46568 19.3968 7.88082 20.159 8.1533 20.456C8.37823 20.8935 8.75501 21.2248 9.27548 21.5672C9.44117 21.674 9.65191 21.7911 10.011 21.9826" stroke="currentColor" stroke-width="1.73045" stroke-linecap="round"/>
<path d="M6.17927 16.0223C6.17927 15.6476 6.2261 15.1268 6.29706 13.9042C6.34892 13.0106 6.32119 11.5576 6.33289 10.7044C6.36873 9.35299 6.27435 8.97621 6.15621 7.72559C6.10902 7.39174 6.03878 7.13416 5.9664 6.72687" stroke="currentColor" stroke-width="1.73045" stroke-linecap="round"/>
<path d="M2.06375 10.3457C2.62573 10.4862 3.03232 10.582 3.26825 10.6175C3.50418 10.6295 3.81214 10.6998 5.16139 10.8062C6.32331 10.8424 8.45416 10.8424 10.6496 10.8424" stroke="currentColor" stroke-width="1.73045" stroke-linecap="round"/>
<path d="M1.14132 4.24341C1.49539 3.08681 1.87217 2.14308 2.1929 1.69001C2.40097 1.3961 2.81874 1.19367 3.78589 0.944609C4.95658 0.643134 5.70386 1.26179 7.01373 1.78155C7.69642 2.05244 7.90495 2.3971 8.2122 2.81078C8.73411 3.51349 8.33212 4.92815 8.1675 5.17579C7.72321 5.84413 7.10314 5.94496 6.60715 6.07623C6.07727 6.21647 5.59033 6.27704 5.03438 6.31287C4.24228 6.36393 3.016 6.27846 2.21986 5.93609C1.70968 5.56818 1.14557 5.09915 0.869549 4.35339C0.857487 4.05892 0.857487 3.5906 1.07036 3.10809" stroke="currentColor" stroke-width="1.73045" stroke-linecap="round"/>
</svg>
