<svg viewBox="0 0 59 43" fill="none" xmlns="http://www.w3.org/2000/svg">
<path d="M28.5562 1.52097L10.0832 34.1102" stroke="#7033ff" stroke-width="0.950398" stroke-linecap="round"/>
<path d="M10.606 34.2845C10.7785 34.342 10.9511 34.3995 17.5961 35.4068C24.2412 36.4141 37.3536 38.3694 50.8633 40.384" stroke="#7033ff" stroke-width="0.950398" stroke-linecap="round"/>
<path d="M27.8591 0.475311L53.6517 6.22635" stroke="#7033ff" stroke-width="0.950398" stroke-linecap="round"/>
<path d="M52.7803 6.05206L58.357 13.7201" stroke="#7033ff" stroke-width="0.950398" stroke-linecap="round"/>
<path d="M58.357 15.6371L48.2491 42.4753" stroke="#7033ff" stroke-width="0.950398" stroke-linecap="round"/>
<path d="M27.9749 9.29405C28.7897 8.53361 29.6044 7.77317 30.3772 8.10113C31.15 8.42909 31.8561 9.8685 32.505 10.5421C33.154 11.2157 33.7243 11.0799 34.4119 10.7927C35.9273 10.1597 36.8887 9.48745 37.3261 9.25455C37.5606 9.12968 37.8721 9.10312 38.2026 9.12945C38.533 9.15579 38.8861 9.26442 39.5161 9.89072C40.1461 10.517 41.0423 11.6577 41.6534 11.8243C42.7464 12.1224 43.0339 10.0644 43.3351 9.73517C43.4552 9.60393 43.582 9.62325 44.7379 10.8725C45.8938 12.1218 48.0936 14.6204 49.2812 15.731C50.4688 16.8417 50.5774 16.4886 50.742 16.0623C50.9066 15.636 51.1239 15.1471 51.3173 14.936C51.5107 14.7249 51.6736 14.8064 51.8526 14.9434C52.0316 15.0805 52.2217 15.2706 52.4176 15.5487" stroke="#7033ff" stroke-width="0.950398" stroke-linecap="round"/>
<path d="M24.8475 18.7584C25.3907 18.2152 25.9339 17.672 26.268 17.3787C26.6021 17.0853 26.7108 17.0581 27.5136 17.9268C28.3164 18.7954 29.8101 20.5607 30.7562 21.2529C31.7022 21.945 32.0552 21.5105 32.6852 20.9743C33.3152 20.4381 34.2115 19.8135 35.1349 19.3695C36.0582 18.9255 36.9816 18.681 37.6474 18.7181C38.7529 18.7796 39.737 19.7698 40.7925 20.3455C41.3361 20.642 41.6891 20.815 42.4528 21.2508C43.9477 22.1037 44.9267 23.0363 45.3094 23.0931C45.9933 23.1945 46.4336 21.9705 47.0636 21.6952C48.1611 22.8108 49.1248 24.5448 49.1939 24.5477C49.1816 24.3605 49.0729 23.7901 48.961 23.2025" stroke="#7033ff" stroke-width="0.950398" stroke-linecap="round"/>
<path d="M17.4407 28.8811C18.4727 28.012 19.4932 26.9397 20.4783 26.3056C20.8957 26.0369 21.4634 26.9208 22.2584 27.7314C23.0534 28.542 24.1398 29.5198 24.9031 30.1592C25.6664 30.7987 26.0738 31.0703 26.3516 31.1151C26.7843 31.185 27.6383 29.9864 28.8851 28.6844C29.3878 28.1595 29.6702 27.9528 30.1496 28.0581C30.629 28.1635 31.308 28.598 32.0516 28.9305C33.5367 29.5946 34.5843 29.6226 35.3476 29.9066C37.154 30.5785 37.9865 32.0076 38.2873 31.9274C38.9355 31.7545 39.2185 30.3139 39.8625 29.3268C40.1263 28.9642 40.2621 28.8828 40.6444 29.1395C41.0266 29.3963 41.6513 29.9938 42.2949 30.6094" stroke="#7033ff" stroke-width="0.950398" stroke-linecap="round"/>
<path d="M7.06415 27.4749L8.27474 30.1382" stroke="#7033ff" stroke-width="0.950398" stroke-linecap="round"/>
<path d="M6.82201 27.4144L3.31128 25.6287" stroke="#7033ff" stroke-width="0.950398" stroke-linecap="round"/>
<path d="M3.31127 25.5985L1.34406 27.142" stroke="#7033ff" stroke-width="0.950398" stroke-linecap="round"/>
<path d="M1.10193 27.8683L2.10067 29.8356" stroke="#7033ff" stroke-width="0.950398" stroke-linecap="round"/>
<path d="M2.37305 30.3803C2.40301 30.3903 2.43297 30.4003 2.96775 30.6901C3.50253 30.9799 4.54123 31.5492 5.61139 32.1357" stroke="#7033ff" stroke-width="0.950398" stroke-linecap="round"/>
<path d="M5.76276 32.287L8.06289 30.5014" stroke="#7033ff" stroke-width="0.950398" stroke-linecap="round"/>
<path d="M8.55243 30.6917C9.06844 29.4424 9.58445 28.1931 10.4749 26.0422C11.3654 23.8913 12.6147 20.8767 13.4484 18.9979C14.2821 17.119 14.6623 16.4672 15.1705 15.6833C15.6787 14.8994 16.3033 14.0032 16.9469 13.0798" stroke="#7033ff" stroke-width="0.950398" stroke-linecap="round"/>
<path d="M8.38782 30.0333C9.88154 27.9149 11.3753 25.7965 12.4299 24.1893C13.4846 22.582 14.0549 21.5499 14.7289 20.4615C15.4029 19.3731 16.1634 18.2596 16.6638 17.333C17.1641 16.4063 17.3814 15.7002 17.7649 14.8475C18.1484 13.9949 18.6916 13.0172 19.2512 12.0099" stroke="#7033ff" stroke-width="0.950398" stroke-linecap="round"/>
<path d="M6.49493 27.2351C8.01581 25.0896 9.53669 22.9441 10.4424 21.5808C11.3481 20.2175 11.5925 19.7015 12.0443 18.5666C12.4961 17.4317 13.148 15.6936 13.7961 14.2143C14.4442 12.735 15.0688 11.5671 15.4042 10.9248C15.7395 10.2825 15.7667 10.201 15.7947 10.117" stroke="#7033ff" stroke-width="0.950398" stroke-linecap="round"/>
<path d="M18.897 11.6982L15.5546 9.17197" stroke="#7033ff" stroke-width="0.950398" stroke-linecap="round"/>
<path d="M15.9045 10.0658L12.8342 9.67719" stroke="#7033ff" stroke-width="0.950398" stroke-linecap="round"/>
<path d="M0.475281 27.4383C1.2448 26.2583 1.73099 25.4838 1.99527 25.0708C2.15794 24.8166 2.42628 24.504 2.91111 23.6462C3.39595 22.7885 4.10134 21.4034 4.67633 20.1512C5.25133 18.899 5.67457 17.8216 5.91825 17.164C6.23509 16.309 6.35586 15.859 6.53678 15.4258C6.69517 15.0466 6.86149 14.744 7.17007 14.2352C7.4028 13.8515 7.88907 13.2776 8.38983 12.6979C8.8906 12.1183 9.41644 11.5668 9.75145 11.1865C10.0865 10.8062 10.2147 10.6138 10.3857 10.4156" stroke="#7033ff" stroke-width="0.950398" stroke-linecap="round"/>
<path d="M10.6188 10.0659L12.8341 9.44403" stroke="#7033ff" stroke-width="0.950398" stroke-linecap="round"/>
<path d="M12.5621 9.9881C12.1132 11.1167 11.6643 12.2453 10.5033 14.6415C9.3422 17.0377 7.48253 20.6673 6.33856 22.8128C5.19458 24.9583 4.82265 25.5098 4.52203 25.9221C4.22141 26.3345 4.00338 26.591 3.77875 26.8553" stroke="#7033ff" stroke-width="0.950398" stroke-linecap="round"/>
<path d="M13.1451 9.56062C13.7222 8.65003 14.2994 7.73943 14.789 6.96253C15.2787 6.18563 15.6635 5.57002 15.9643 5.13105C16.2651 4.69207 16.4703 4.44839 16.6817 4.19733" stroke="#7033ff" stroke-width="0.950398" stroke-linecap="round"/>
<path d="M16.1376 9.56062C16.3557 8.20114 16.5737 6.84166 16.6732 5.94895C16.7727 5.05623 16.747 4.67147 16.7206 4.27505" stroke="#7033ff" stroke-width="0.950398" stroke-linecap="round"/>
<path d="M18.6638 11.6204C18.7151 11.5691 18.6518 11.1964 18.3939 10.3703C18.2424 9.88506 17.9821 9.28777 17.8117 8.78487C17.6413 8.28196 17.5515 7.8972 17.4925 7.55792C17.4334 7.21863 17.4077 6.93647 17.4009 6.49614C17.3941 6.0558 17.407 5.46584 17.4202 4.858" stroke="#7033ff" stroke-width="0.950398" stroke-linecap="round"/>
<path d="M10.2302 9.83265C12.1412 8.39622 14.0522 6.95979 15.1328 6.13004C16.2134 5.30028 16.4058 5.12072 16.604 4.93573" stroke="#7033ff" stroke-width="0.950398" stroke-linecap="round"/>
<path d="M4.47638 28.7939C4.60124 28.7655 4.7261 28.7371 4.79609 28.7849C4.95371 28.8926 4.86643 29.1487 4.82352 29.2489C4.80665 29.2884 4.78629 29.2981 4.76617 29.2926C4.71671 29.2791 4.67725 29.207 4.64286 29.1355C4.63116 29.0584 4.63684 28.9664 4.65679 28.8776C4.67106 28.84 4.69376 28.8173 4.71715 28.7939" stroke="#7033ff" stroke-width="0.950398" stroke-linecap="round"/>
</svg>
