<svg viewBox="0 0 38 49" fill="none" xmlns="http://www.w3.org/2000/svg">
<path d="M34.4325 8.34417C34.1976 12.0684 33.9628 15.7925 33.7915 19.1538C33.6201 22.515 33.5195 25.4004 33.3838 28.4134C33.248 31.4264 33.0803 34.4795 33.0274 36.153C32.9682 38.027 33.1108 38.3695 33.0101 38.8244C32.8205 39.6813 32.3665 41.1735 32.1296 42.7825C32.0148 43.5627 31.6223 44.061 31.1318 44.6364C30.7812 45.0476 29.9651 45.5179 28.53 46.2448C26.7498 47.1466 24.9832 47.351 23.8166 47.4527C22.754 47.5453 21.6617 47.3866 20.6633 47.2341C19.9729 47.1286 18.7173 47.0145 16.9747 46.7435C15.6767 46.5417 14.8803 46.5051 13.9373 46.3363C13.2331 46.2103 12.0548 46.1005 10.7957 45.9978C9.53647 45.8951 8.22797 45.828 7.33582 45.7263C5.99539 45.5736 4.95419 45.2515 3.90495 45.0487C3.17645 44.9079 2.37786 44.2724 1.46385 43.2923C0.647898 42.4174 0.644385 41.2894 0.627101 40.3942C0.617587 39.9014 0.710471 39.3313 1.19798 37.276C1.68549 35.2207 2.59137 31.6978 3.14192 29.1114C3.69246 26.5249 3.86022 24.9815 4.2486 22.945C4.63698 20.9086 5.2409 18.4258 5.56879 16.1235C5.89667 13.8212 5.93022 11.7745 6.03139 10.2169C6.19848 7.64417 6.5738 6.28027 6.81018 5.63771C7.0348 5.02714 7.55492 4.61796 8.0958 4.31345C8.36146 4.1639 8.63669 4.07605 9.68084 3.97388C10.725 3.8717 12.5368 3.77104 14.0405 3.76952C15.5442 3.76799 16.6849 3.86865 19.336 4.40699C21.987 4.94533 26.1138 5.91832 28.4243 6.46988C31.1067 7.11023 32.088 7.25935 33.154 7.37729C33.918 7.59588 34.464 7.86836 34.8869 8.15558C35.075 8.30859 35.2092 8.47635 35.3475 8.64918" stroke="#7033ff" stroke-width="1.25296" stroke-linecap="round"/>
<path d="M31.9923 37.7269C29.9792 37.8611 27.9662 37.9953 25.8555 37.947C23.7448 37.8987 21.5975 37.6639 20.3739 37.4926C18.9046 37.2869 17.9018 37.0498 16.5648 36.8978C15.651 36.7939 14.4796 36.5079 12.5545 36.3218C10.1659 36.091 8.4424 36.0331 7.49738 35.9314C6.14974 35.8969 5.01916 35.8298 4.46048 35.6945C4.23732 35.6264 4.13666 35.5593 4.03296 35.4902" stroke="#7033ff" stroke-width="1.25296" stroke-linecap="round"/>
<path d="M17.5552 39.9637C15.5421 40.0308 14.4044 40.0989 14.168 40.2839C13.7601 40.6033 13.6582 41.2152 13.6073 41.6382C13.5688 41.9586 13.6571 42.2329 13.8259 42.5034C14.3464 43.3374 16.1908 43.758 17.8541 43.7768C18.6793 43.7861 19.3151 43.4215 19.7045 43.2186C19.8688 43.133 19.9261 43.0158 19.9607 42.8465C19.7604 41.8649 18.9481 40.8817 18.3558 40.3739C18.0991 40.168 17.9314 40.0674 17.7585 39.9637" stroke="#7033ff" stroke-width="1.25296" stroke-linecap="round"/>
<path d="M7.18469 9.56421C9.80169 10.101 12.4187 10.6378 14.4882 10.9647C16.5577 11.2916 18.0004 11.3922 18.8107 11.4609C19.621 11.5295 19.7552 11.563 21.9213 11.7481C24.0874 11.9331 28.2813 12.2686 30.5089 12.4583C32.7365 12.6479 32.8707 12.6814 33.009 12.716" stroke="#7033ff" stroke-width="1.25296" stroke-linecap="round"/>
<path d="M21.2153 8.34418C21.3159 8.27708 21.4166 8.20998 21.4684 8.29284C21.5203 8.3757 21.5203 8.61056 21.4867 8.79865C21.4532 8.98674 21.3861 9.12094 21.2676 9.15653C21.1492 9.19211 20.9814 9.12501 20.8783 9.04012C20.7751 8.95522 20.7415 8.85457 20.7242 8.70206C20.7069 8.54956 20.7069 8.34825 20.8076 8.14389C20.9082 7.93954 21.1096 7.73823 21.3139 7.7855C21.5183 7.83278 21.7196 8.13474 21.8065 8.3574C21.8934 8.58006 21.8599 8.71426 21.7923 8.7163C21.7247 8.71833 21.624 8.58413 21.6225 8.46466C21.621 8.3452 21.7216 8.24455 21.8406 8.19269C21.9595 8.14084 22.0937 8.14084 22.1125 8.27505C22.1313 8.40925 22.0307 8.67766 21.8253 8.95421" stroke="#7033ff" stroke-width="1.25296" stroke-linecap="round"/>
<path d="M34.7032 7.85773L35.4199 7.20627" stroke="#7033ff" stroke-width="1.25296" stroke-linecap="round"/>
<path d="M34.8987 44.6653C34.8987 44.5363 34.8987 44.4073 35.1782 40.4389C35.4576 36.4706 36.0166 28.6667 36.2185 23.4856C36.4205 18.3046 36.2485 15.9828 36.1922 14.3245C36.1358 12.6662 36.2003 11.7418 36.2765 11.0291C36.3527 10.3164 36.4387 9.8434 36.5273 9.35611" stroke="#7033ff" stroke-width="1.25296" stroke-linecap="round"/>
<path d="M9.94775 0.626495C10.0122 0.626495 10.0767 0.626495 14.3451 1.26069C18.6135 1.89489 27.0838 3.16328 31.4903 3.8382C35.8967 4.51311 35.9827 4.55611 36.156 4.62125C36.3293 4.6864 36.5873 4.77239 36.9182 4.92614" stroke="#7033ff" stroke-width="1.25296" stroke-linecap="round"/>
<path d="M33.8563 4.60043C35.1462 5.11639 36.1332 5.83365 36.697 6.72192C36.9384 7.15872 37.0889 7.56719 37.1664 7.89585C37.2439 8.22451 37.2439 8.46099 37.2439 8.70464" stroke="#7033ff" stroke-width="1.25296" stroke-linecap="round"/>
<path d="M26.6071 47.3343C28.7604 47.2791 30.4218 47.2506 31.5621 47.1816C33.8045 47.0459 34.7193 46.0535 35.0543 45.6641C35.1409 45.4679 35.0581 45.2747 35.0016 45.1061C34.9451 44.9375 34.9175 44.7995 34.8891 44.5736" stroke="#7033ff" stroke-width="1.25296" stroke-linecap="round"/>
<path d="M31.7938 44.49C32.0699 44.49 32.346 44.49 32.6124 44.6142C32.8789 44.7384 33.1273 44.9869 33.4348 45.2529C33.7422 45.5189 34.1011 45.795 34.4708 46.0794" stroke="#7033ff" stroke-width="1.25296" stroke-linecap="round"/>
<path d="M5.73633 6.09274C6.0101 5.46696 6.28388 4.84119 6.56832 4.32979C6.85276 3.81838 7.13958 3.44031 7.5937 2.98481C8.04782 2.52931 8.66055 2.00783 9.12613 1.66097C9.59171 1.31411 9.89156 1.15766 10.0656 1.05751C10.2396 0.957367 10.2787 0.918256 10.319 0.87796" stroke="#7033ff" stroke-width="1.25296" stroke-linecap="round"/>
</svg>
